<svg width="1027" height="600" viewBox="0 0 1027 600" fill="none" xmlns="http://www.w3.org/2000/svg">
<g id="Prism">
<rect id="wrapper" x="3" width="1024" height="600" fill="#1F1F1F"/>
<g id="triangle" filter="url(#filter0_d)">
<path d="M411.077 359L515 179L618.923 359H411.077Z" stroke="white" stroke-width="5"/>
</g>
<g id="light" filter="url(#filter1_f)">
<path d="M3.00006 387.5L461.5 271" stroke="white" stroke-width="4"/>
</g>
<g id="rainbow">
<path id="Subtract" fill-rule="evenodd" clip-rule="evenodd" d="M1027 383.492L573.351 275.305L577.292 282.147L1027 394.742V383.492Z" fill="#6802CE" fill-opacity="0.67"/>
<path id="Subtract_2" fill-rule="evenodd" clip-rule="evenodd" d="M1027 372.238L569.423 268.485L573.334 275.274L1027 383.491V372.238Z" fill="#0242E6"/>
<path id="Subtract_3" fill-rule="evenodd" clip-rule="evenodd" d="M1027 362.423L565.605 261.855L569.483 268.589L1027 372.242V362.423Z" fill="#00E6E5" fill-opacity="0.95"/>
<path id="Subtract_4" fill-rule="evenodd" clip-rule="evenodd" d="M1027 362.421L565.575 261.804L561.74 255.146L1027 352.123V362.421Z" fill="#93FF3E" fill-opacity="0.9"/>
<path id="Subtract_5" fill-rule="evenodd" clip-rule="evenodd" d="M1027 352.122L561.724 255.119L557.909 248.495L1027 342.301V352.122Z" fill="#E9EE00" fill-opacity="0.96"/>
<path id="Subtract_6" fill-rule="evenodd" clip-rule="evenodd" d="M1027 342.304L557.965 248.592L554.178 242.018L1027 333.44V342.304Z" fill="#FFA41C"/>
<path id="Subtract_7" fill-rule="evenodd" clip-rule="evenodd" d="M1027 333.453L554.385 242.376L550.945 236.404L1027 325.088V333.453Z" fill="#FF4242" fill-opacity="0.95"/>
</g>
<g id="inside light" filter="url(#filter2_iif)">
<path d="M530.5 245L546.5 275L461 271.5L530.5 245Z" fill="white"/>
</g>
<g id="Star blur" filter="url(#filter3_df)">
<path d="M460.5 254.5L465.5 267.5L479 259.5L465.5 269L478.5 273.015L465.5 270.5L469 282L463 270.5L449 264L464 268L460.5 254.5Z" fill="white"/>
</g>
</g>
<defs>
<filter id="filter0_d" x="393.747" y="161" width="246.506" height="217.5" filterUnits="userSpaceOnUse" color-interpolation-filters="sRGB">
<feFlood flood-opacity="0" result="BackgroundImageFix"/>
<feColorMatrix in="SourceAlpha" type="matrix" values="0 0 0 0 0 0 0 0 0 0 0 0 0 0 0 0 0 0 127 0"/>
<feOffset dx="2" dy="2"/>
<feGaussianBlur stdDeviation="7.5"/>
<feColorMatrix type="matrix" values="0 0 0 0 0 0 0 0 0 0 0 0 0 0 0 0 0 0 0.25 0"/>
<feBlend mode="normal" in2="BackgroundImageFix" result="effect1_dropShadow"/>
<feBlend mode="normal" in="SourceGraphic" in2="effect1_dropShadow" result="shape"/>
</filter>
<filter id="filter1_f" x="0.503235" y="266.552" width="463.494" height="125.397" filterUnits="userSpaceOnUse" color-interpolation-filters="sRGB">
<feFlood flood-opacity="0" result="BackgroundImageFix"/>
<feBlend mode="normal" in="SourceGraphic" in2="BackgroundImageFix" result="shape"/>
<feGaussianBlur stdDeviation="1" result="effect1_foregroundBlur"/>
</filter>
<filter id="filter2_iif" x="455" y="239" width="97.5" height="42" filterUnits="userSpaceOnUse" color-interpolation-filters="sRGB">
<feFlood flood-opacity="0" result="BackgroundImageFix"/>
<feBlend mode="normal" in="SourceGraphic" in2="BackgroundImageFix" result="shape"/>
<feColorMatrix in="SourceAlpha" type="matrix" values="0 0 0 0 0 0 0 0 0 0 0 0 0 0 0 0 0 0 127 0" result="hardAlpha"/>
<feOffset dy="1"/>
<feGaussianBlur stdDeviation="4.5"/>
<feComposite in2="hardAlpha" operator="arithmetic" k2="-1" k3="1"/>
<feColorMatrix type="matrix" values="0 0 0 0 0.121569 0 0 0 0 0.121569 0 0 0 0 0.121569 0 0 0 1 0"/>
<feBlend mode="luminosity" in2="shape" result="effect1_innerShadow"/>
<feColorMatrix in="SourceAlpha" type="matrix" values="0 0 0 0 0 0 0 0 0 0 0 0 0 0 0 0 0 0 127 0" result="hardAlpha"/>
<feOffset dx="-7" dy="4"/>
<feGaussianBlur stdDeviation="0.5"/>
<feComposite in2="hardAlpha" operator="arithmetic" k2="-1" k3="1"/>
<feColorMatrix type="matrix" values="0 0 0 0 0.121569 0 0 0 0 0.121569 0 0 0 0 0.121569 0 0 0 1 0"/>
<feBlend mode="normal" in2="effect1_innerShadow" result="effect2_innerShadow"/>
<feGaussianBlur stdDeviation="3" result="effect3_foregroundBlur"/>
</filter>
<filter id="filter3_df" x="425" y="230.5" width="78" height="75.5" filterUnits="userSpaceOnUse" color-interpolation-filters="sRGB">
<feFlood flood-opacity="0" result="BackgroundImageFix"/>
<feColorMatrix in="SourceAlpha" type="matrix" values="0 0 0 0 0 0 0 0 0 0 0 0 0 0 0 0 0 0 127 0"/>
<feOffset/>
<feGaussianBlur stdDeviation="12"/>
<feColorMatrix type="matrix" values="0 0 0 0 0.121569 0 0 0 0 0.121569 0 0 0 0 0.121569 0 0 0 1 0"/>
<feBlend mode="hard-light" in2="BackgroundImageFix" result="effect1_dropShadow"/>
<feBlend mode="normal" in="SourceGraphic" in2="effect1_dropShadow" result="shape"/>
<feGaussianBlur stdDeviation="2" result="effect2_foregroundBlur"/>
</filter>
</defs>
</svg>
